<svg version="1.1" id="Layer_1" xmlns="http://www.w3.org/2000/svg" xmlns:xlink="http://www.w3.org/1999/xlink" x="0px" y="0px"
	 width="100%" viewBox="0 0 1024 1024" enable-background="new 0 0 1024 1024" xml:space="preserve">
<path fill="#000000" opacity="1.000000" stroke="none" 
	d="
M328.000000,218.984650 
	C353.666504,218.986221 378.834045,218.844437 403.999176,219.030426 
	C422.732361,219.168854 441.258789,221.100281 458.985809,227.710892 
	C486.222778,237.867859 506.561035,255.311890 515.212708,283.801147 
	C526.976990,322.539856 512.870911,363.539856 474.495056,386.443176 
	C463.367493,393.084229 451.379852,397.459503 438.785431,400.301514 
	C436.868195,400.734161 434.972290,401.261292 433.360687,401.670105 
	C432.485931,403.472290 433.388367,404.351715 434.177521,405.164490 
	C448.769135,420.193024 460.102020,437.739624 472.207062,454.665192 
	C496.438538,488.546295 519.243286,523.439392 544.346130,556.703674 
	C560.336426,577.892700 578.175476,597.152222 602.408447,609.184753 
	C635.008972,625.371948 667.986633,626.306458 701.113098,610.762573 
	C708.552612,607.271667 715.133301,602.440308 720.826477,596.439087 
	C723.012207,594.135254 724.072388,591.587219 724.061951,588.365356 
	C723.976318,561.865723 724.068848,535.365356 723.914978,508.866272 
	C723.846985,497.157562 720.695679,493.407166 709.189514,490.261017 
	C706.963745,489.652435 704.903809,488.980927 705.088745,486.144928 
	C705.281311,483.193237 707.499390,482.884583 709.782227,482.882935 
	C734.115295,482.865356 758.448425,482.861877 782.781494,482.868713 
	C785.032593,482.869354 787.276245,483.027161 787.577698,486.002380 
	C787.913452,489.316589 785.504211,489.701935 783.111084,490.113464 
	C769.005432,492.539062 765.360657,496.784210 765.337952,511.165222 
	C765.296631,537.331665 765.174011,563.500183 765.478516,589.663330 
	C765.542847,595.189819 763.632690,598.495361 759.252502,601.574768 
	C729.683167,622.362366 697.015076,634.316772 660.973389,637.472107 
	C629.960938,640.187134 599.809265,637.093140 570.664124,625.811401 
	C540.245667,614.036804 516.317566,593.898071 496.559296,568.349609 
	C473.708588,538.802551 453.341614,507.489868 431.599915,477.154755 
	C418.591736,459.005188 405.892731,440.621521 391.444305,423.559235 
	C385.823822,416.921967 379.860992,410.598969 371.045105,408.093964 
	C364.211487,406.152191 362.904877,407.020660 362.917084,413.911377 
	C362.974579,446.409302 362.798370,478.911072 363.265320,511.403412 
	C363.505249,528.096069 370.996246,536.200989 387.385040,539.580017 
	C389.663940,540.049866 391.971039,540.405762 394.279297,540.704102 
	C396.544830,540.997009 398.151123,541.914001 398.012878,544.452209 
	C397.881317,546.867615 396.128754,547.319580 394.125824,547.328003 
	C393.125885,547.332214 392.125916,547.350769 391.125977,547.350769 
	C354.292786,547.349487 317.459564,547.346741 280.626373,547.343994 
	C280.126373,547.343933 279.624634,547.367188 279.126709,547.334045 
	C277.049438,547.195801 274.409882,547.856445 274.031067,544.732178 
	C273.648987,541.581055 275.902435,540.933105 278.443207,540.579529 
	C281.242188,540.190063 284.041779,539.707458 286.786316,539.040161 
	C302.827209,535.139954 309.532257,527.391113 309.706757,510.899109 
	C310.069946,476.570618 310.045258,442.237244 310.040527,407.905853 
	C310.033539,357.407227 310.077576,306.907440 309.734406,256.410645 
	C309.613403,238.607880 301.952576,230.434906 284.323853,227.400909 
	C280.716980,226.780136 277.078156,226.346848 273.466705,225.750443 
	C271.303467,225.393234 268.919434,225.036896 269.136841,222.019150 
	C269.359344,218.930756 271.858398,219.053040 274.002289,219.046844 
	C291.834747,218.995331 309.667419,218.996643 328.000000,218.984650 
M362.916931,240.590515 
	C362.927795,250.081161 362.999817,259.572205 362.938904,269.062378 
	C362.682404,309.016907 363.458191,348.975006 362.523987,388.926788 
	C362.442596,392.406189 363.816498,394.172272 367.521698,394.091064 
	C376.674866,393.890442 385.874817,394.380585 394.978302,393.639313 
	C418.846100,391.695770 438.607239,381.859436 451.684143,361.179993 
	C466.280853,338.097198 468.185272,312.714844 463.055695,286.615814 
	C457.052643,256.072449 435.061310,235.743317 404.796326,232.850266 
	C393.315826,231.752853 381.842438,232.457474 370.368408,232.214249 
	C363.008575,232.058228 363.005920,232.183716 362.916931,240.590515 
z"/>
<path fill="#000000" opacity="1.000000" stroke="none" 
	d="
M531.640381,407.639832 
	C515.959229,436.867188 513.011475,467.971466 515.865112,499.910095 
	C513.535461,500.425903 513.109985,498.853607 512.416687,497.859680 
	C501.457001,482.146759 490.597382,466.363403 479.546082,450.715424 
	C477.709656,448.115082 478.156708,445.737091 478.838684,443.160248 
	C487.760254,409.449158 506.496002,382.498474 534.998291,362.477722 
	C558.285156,346.120453 584.456482,337.669403 612.620422,334.547729 
	C654.588013,329.896088 694.482300,337.142975 732.796204,354.391052 
	C735.954285,355.812744 737.322571,357.736969 737.297058,361.250183 
	C737.177185,377.744995 737.266724,394.241211 737.226013,410.736816 
	C737.221741,412.458038 737.797119,414.799042 735.292969,415.262146 
	C732.746094,415.733093 732.458801,413.382233 731.978699,411.704407 
	C722.620422,379.006226 699.918030,360.147522 668.076416,351.952576 
	C637.947510,344.198425 608.239807,346.420898 579.972290,360.240570 
	C558.797607,370.592651 543.000916,386.641846 531.640381,407.639832 
z"/>
<path fill="#000000" opacity="1.000000" stroke="none" 
	d="
M654.836975,505.000000 
	C654.831421,490.006927 654.956177,475.511932 654.745667,461.021851 
	C654.677979,456.361481 656.314880,454.237793 661.023987,454.253723 
	C670.516907,454.285858 680.010559,454.166473 689.503601,454.075226 
	C693.853271,454.033447 695.234131,456.377075 695.209534,460.422577 
	C695.125610,474.248566 695.213623,488.075500 695.213074,501.902100 
	C695.211853,533.053894 695.068970,564.206665 695.310974,595.356506 
	C695.352234,600.670898 693.330322,603.168396 688.631775,604.819824 
	C679.129517,608.159668 669.397400,610.047241 659.369812,610.717041 
	C656.064575,610.937866 654.767090,609.597046 654.803162,606.452087 
	C654.850952,602.288025 654.819031,598.122925 654.819885,593.958313 
	C654.825867,564.472229 654.831482,534.986084 654.836975,505.000000 
z"/>
<path fill="#000000" opacity="1.000000" stroke="none" 
	d="
M643.248413,509.011780 
	C643.240479,540.675049 643.243713,571.840942 643.214355,603.006836 
	C643.207520,610.299805 643.034180,610.534241 635.874207,609.276550 
	C625.637939,607.478577 615.952820,603.957764 606.620605,599.401001 
	C603.890320,598.067871 602.780212,596.152893 602.787598,593.088928 
	C602.863037,561.756592 602.875916,530.423889 602.801392,499.091492 
	C602.791321,494.874176 604.517822,492.915070 608.703735,492.930969 
	C618.369873,492.967621 628.036194,492.954407 637.702454,492.952301 
	C641.424255,492.951508 643.198975,494.831909 643.195374,498.514923 
	C643.192139,501.848053 643.228699,505.181213 643.248413,509.011780 
z"/>
<path fill="#000000" opacity="1.000000" stroke="none" 
	d="
M553.031860,523.046631 
	C564.507629,521.633606 575.658142,522.261047 586.795227,522.285950 
	C590.621216,522.294495 591.255493,524.980591 591.247009,528.141846 
	C591.210449,541.798035 591.229919,555.454468 591.229309,569.110779 
	C591.229004,575.398376 591.229309,581.685974 591.229309,587.701965 
	C588.423645,589.039795 587.170410,587.280518 585.835815,586.241333 
	C573.130188,576.348267 562.494202,564.449646 552.697998,551.754700 
	C552.098755,550.978149 551.329590,550.052246 551.290894,549.167358 
	C550.935730,541.039856 550.502563,532.901794 551.485168,524.787842 
	C551.552490,524.232056 552.261841,523.754150 553.031860,523.046631 
z"/>
<path fill="#000000" opacity="1.000000" stroke="none" 
	d="
M422.069763,743.970032 
	C413.954041,733.269653 406.059814,722.860962 397.371613,711.405396 
	C397.371613,722.852234 397.398041,732.956787 397.361298,743.060974 
	C397.340607,748.744934 396.215851,749.608154 390.529419,749.176086 
	C387.784302,748.967529 386.726410,747.713013 386.734100,745.065674 
	C386.780548,729.078003 386.773254,713.090149 386.791290,697.102356 
	C386.793427,695.198120 386.911591,693.168823 389.376587,692.994324 
	C392.794586,692.752258 396.258728,692.080505 398.862701,695.640991 
	C405.742188,705.047668 412.831390,714.301392 419.870575,723.590637 
	C421.147736,725.276062 422.214783,727.185120 424.840485,728.727295 
	C424.840485,718.514832 424.970978,708.773193 424.779816,699.037903 
	C424.697083,694.824524 425.543701,692.533142 430.521057,692.669189 
	C434.782867,692.785645 436.009979,694.504272 435.985962,698.388428 
	C435.893280,713.376465 435.966125,728.365356 435.916138,743.353821 
	C435.909210,745.425598 436.477539,748.218262 433.664001,748.776733 
	C430.665222,749.371948 427.322968,750.121338 424.731384,747.421692 
	C423.815094,746.467163 423.098816,745.320618 422.069763,743.970032 
z"/>
<path fill="#000000" opacity="1.000000" stroke="none" 
	d="
M216.907135,739.076843 
	C216.909729,740.871826 216.849106,742.207031 216.918533,743.535339 
	C217.121399,747.416382 215.682556,749.265930 211.432755,749.246582 
	C207.286270,749.227722 205.831284,747.647217 205.863571,743.620728 
	C205.983749,728.635010 205.995010,713.647095 205.867706,698.661560 
	C205.832016,694.459229 207.247787,692.568909 211.674667,692.763062 
	C219.150681,693.090820 226.703964,692.496033 234.112595,693.309998 
	C243.485260,694.339722 248.817093,699.246948 250.246887,706.551086 
	C252.046036,715.741943 249.285233,721.845947 240.946564,727.138428 
	C240.539154,727.396973 240.177292,727.727234 239.412308,728.320068 
	C242.560013,735.375977 248.660339,740.689697 251.819611,747.782288 
	C244.894104,750.731812 240.638016,749.670166 236.994614,744.312439 
	C234.466873,740.595337 231.942474,736.875854 229.435089,733.145081 
	C227.150742,729.746033 222.386459,728.193970 218.594727,729.483948 
	C216.928619,730.050781 216.817017,731.229614 216.839203,732.619873 
	C216.871094,734.617737 216.882950,736.615845 216.907135,739.076843 
M217.603683,704.239014 
	C216.191071,708.303772 217.119461,712.485962 217.011902,716.614014 
	C216.974289,718.057556 217.626328,719.446228 219.197983,719.494873 
	C224.328644,719.653809 229.561050,720.588623 234.543427,718.766418 
	C238.547058,717.302124 239.928116,713.843933 239.548996,709.911499 
	C239.168396,705.963745 236.697708,703.487854 232.659821,703.268799 
	C227.861053,703.008362 223.025955,702.529785 217.603683,704.239014 
z"/>
<path fill="#000000" opacity="1.000000" stroke="none" 
	d="
M783.043457,743.689575 
	C783.049255,728.584778 783.042114,713.945129 783.079529,699.305603 
	C783.094971,693.284180 783.543518,692.869751 789.665527,692.828491 
	C794.489807,692.795959 799.315002,692.757141 804.138733,692.814087 
	C820.812378,693.010986 832.009766,703.599854 832.335022,719.428772 
	C832.694702,736.930542 822.311584,748.315674 805.086792,749.084167 
	C799.441345,749.335999 793.773621,749.046631 788.120850,749.191467 
	C784.504089,749.284058 782.851318,747.736084 783.043457,743.689575 
M794.173035,711.594910 
	C794.175842,717.243591 794.106262,722.893494 794.196960,728.540771 
	C794.372559,739.475464 792.010803,739.159729 805.079956,738.800293 
	C813.170715,738.577820 818.804199,733.984741 820.759521,726.661011 
	C823.678894,715.726562 818.927307,702.179321 802.389343,702.934082 
	C794.230164,703.306580 794.213379,702.938965 794.173035,711.594910 
z"/>
<path fill="#000000" opacity="1.000000" stroke="none" 
	d="
M694.909241,699.187866 
	C702.158264,710.412231 700.131836,718.890747 687.686584,728.780823 
	C691.821411,734.967407 696.004944,741.226807 700.228638,747.546326 
	C693.344849,750.795776 689.065125,749.748596 685.284241,744.288635 
	C682.538147,740.323242 679.784058,736.362976 677.079285,732.369446 
	C675.904968,730.635620 674.577332,729.502808 672.278076,729.342285 
	C665.769104,728.887939 665.146667,729.364685 665.118652,735.945251 
	C665.108765,738.274353 665.134460,740.604004 665.092224,742.932434 
	C664.989807,748.578491 663.674316,749.679077 658.232849,749.124695 
	C655.818542,748.878662 654.619934,747.872375 654.624878,745.375488 
	C654.657227,729.072144 654.651306,712.768738 654.658203,696.465393 
	C654.658997,694.609680 655.234924,692.954041 657.343689,692.982422 
	C667.276245,693.115845 677.300171,691.485291 687.102661,694.294434 
	C690.013550,695.128662 692.649414,696.544434 694.909241,699.187866 
M687.666138,712.932800 
	C687.833313,705.965149 685.625244,703.417786 678.931519,703.112732 
	C675.789612,702.969482 672.631714,703.187561 669.488586,703.059143 
	C666.283203,702.928223 665.063965,704.354797 665.078491,707.498840 
	C665.146118,722.140686 663.869629,719.420776 676.615051,719.698181 
	C681.399048,719.802307 685.548462,718.740845 687.666138,712.932800 
z"/>
<path fill="#000000" opacity="1.000000" stroke="none" 
	d="
M596.679443,749.119873 
	C585.510681,750.839111 575.680908,749.332153 567.883850,740.883789 
	C558.309143,730.509338 558.326965,711.455139 567.919861,700.946472 
	C577.517639,690.432617 595.772278,688.860107 607.134521,697.655762 
	C609.100342,699.177551 612.191895,700.656616 609.043884,703.869263 
	C606.738281,706.222107 605.282593,709.702698 600.760254,706.001526 
	C593.675659,700.203369 582.857422,701.023743 576.931946,706.932983 
	C570.576355,713.271118 569.848206,724.832031 575.305542,732.755554 
	C579.963196,739.517883 589.277222,741.612427 597.711975,738.196777 
	C601.607605,736.619202 602.424072,733.986816 601.935547,730.308960 
	C601.377808,726.110352 598.118408,727.374939 595.718079,727.315308 
	C588.501465,727.136047 587.608948,726.513977 588.019836,721.585510 
	C588.234131,719.014404 589.203125,717.618652 592.012085,717.668457 
	C597.503601,717.765930 602.998718,717.745972 608.490906,717.670105 
	C611.238831,717.632141 612.395020,718.837158 612.356628,721.563965 
	C612.279419,727.056152 612.301025,732.550171 612.331482,738.043213 
	C612.354370,742.174316 609.050659,743.527771 606.304749,745.290649 
	C603.482117,747.102844 600.312317,748.155762 596.679443,749.119873 
z"/>
<path fill="#000000" opacity="1.000000" stroke="none" 
	d="
M526.056641,745.270508 
	C526.771606,746.628662 527.546875,747.685242 526.101440,748.604126 
	C523.252502,750.415344 515.580872,748.840881 513.436462,745.944092 
	C508.409241,739.153137 503.424286,732.330811 498.267395,725.310425 
	C493.156769,728.898438 489.189514,732.376953 490.280945,738.931824 
	C490.550903,740.553040 490.169342,742.274292 490.352600,743.920044 
	C490.845306,748.344910 488.487213,749.215637 484.661163,749.226807 
	C480.822449,749.238098 479.421326,747.982605 479.481354,743.972778 
	C479.708221,728.814514 479.728851,713.649902 479.544067,698.491089 
	C479.490784,694.118591 480.962402,692.699463 485.317688,692.699707 
	C489.915894,692.699951 490.447510,695.006348 490.345428,698.669678 
	C490.179932,704.608765 490.300903,710.555725 490.300903,716.825012 
	C495.272919,712.120422 499.834564,707.887512 504.292664,703.548218 
	C506.318634,701.576233 508.355042,699.550537 510.011017,697.275635 
	C514.237305,691.469910 519.865173,692.490051 526.021973,693.399597 
	C525.242615,696.531067 523.110046,698.197510 521.355164,700.067505 
	C517.251221,704.440674 513.153076,708.826233 508.877502,713.028748 
	C506.117981,715.741150 505.947937,718.015442 508.397675,721.188599 
	C514.401245,728.964966 520.058289,737.008850 526.056641,745.270508 
z"/>
<path fill="#000000" opacity="1.000000" stroke="none" 
	d="
M300.738129,721.824707 
	C304.338013,713.363098 308.011383,705.339417 311.180573,697.121277 
	C312.848358,692.796448 315.969543,692.879456 319.592407,692.769226 
	C323.205780,692.659119 324.369476,694.749329 325.548950,697.587036 
	C331.802643,712.632812 338.222778,727.609436 344.543976,742.627319 
	C345.232788,744.263794 346.341309,745.842712 345.894592,747.773071 
	C339.173126,750.802002 335.773468,749.891541 333.631592,743.255310 
	C331.759552,737.455017 328.543610,735.215332 322.693695,736.108643 
	C321.068481,736.356812 319.343323,736.338440 317.713379,736.101929 
	C309.702484,734.939392 303.857910,736.759644 302.088135,745.885376 
	C301.509644,748.868225 293.859894,750.546753 291.314911,748.686279 
	C289.372925,747.266663 290.703430,745.694885 291.306824,744.248474 
	C294.379761,736.882324 297.499115,729.535461 300.738129,721.824707 
M312.406555,720.672363 
	C312.116058,722.241577 310.658875,723.585510 311.598022,725.663330 
	C316.029755,726.050171 320.547485,726.328003 325.078217,725.406799 
	C324.290894,719.899048 320.787231,711.481934 317.795288,708.003845 
	C316.032135,712.129089 314.353455,716.056641 312.406555,720.672363 
z"/>
<path fill="#000000" opacity="1.000000" stroke="none" 
	d="
M655.000000,806.065918 
	C676.475098,806.082703 697.445557,806.324402 718.396301,807.433411 
	C719.021667,807.466553 719.623718,807.940002 719.922241,808.070618 
	C718.786072,811.465149 716.583130,811.149048 714.685852,811.186584 
	C670.214294,812.066467 625.739014,812.404907 581.260071,811.932678 
	C575.102051,811.867310 568.946167,811.564575 562.790710,811.332092 
	C561.154114,811.270264 559.144958,811.429993 559.055969,809.061035 
	C558.971313,806.807556 560.872070,806.510071 562.542114,806.339783 
	C564.359802,806.154419 566.199402,806.131653 568.029541,806.129700 
	C596.853027,806.099548 625.676514,806.084167 655.000000,806.065918 
z"/>
<path fill="#000000" opacity="1.000000" stroke="none" 
	d="
M338.965759,811.349060 
	C330.467957,811.063171 322.374481,811.917419 314.064270,810.395691 
	C315.346893,806.246826 318.047913,807.033752 320.131592,806.994385 
	C338.778290,806.641602 357.426331,806.208984 376.075104,806.150696 
	C407.710419,806.051819 439.346527,806.198792 470.982208,806.279602 
	C472.922302,806.284546 475.546570,806.086487 475.401306,808.962524 
	C475.234680,812.262451 472.275574,811.295471 470.321259,811.338013 
	C428.867157,812.240723 387.411774,812.677185 345.956024,811.399780 
	C343.792389,811.333008 341.625702,811.364441 338.965759,811.349060 
z"/>
<path fill="#000000" opacity="1.000000" stroke="none" 
	d="
M746.336426,713.000366 
	C746.337952,723.665161 746.208313,733.832520 746.404663,743.993652 
	C746.481812,747.982788 744.882019,749.263794 741.091370,749.225220 
	C737.495178,749.188599 735.557251,748.351501 735.604492,744.173462 
	C735.779419,728.678101 735.754761,713.178955 735.621643,697.682800 
	C735.589417,693.936401 737.076782,692.682129 740.660400,692.751221 
	C744.020081,692.816040 746.598328,693.082214 746.392883,697.505554 
	C746.161194,702.494019 746.337097,707.501343 746.336426,713.000366 
z"/>
<path fill="#000000" opacity="1.000000" stroke="none" 
	d="
M515.423950,813.977051 
	C512.380371,812.104248 511.118286,809.793213 512.449158,806.685791 
	C513.301941,804.694702 514.949829,803.662964 517.189941,803.779358 
	C519.647827,803.907043 521.157837,805.321533 521.903625,807.529602 
	C523.134705,811.174377 520.721741,813.739746 515.423950,813.977051 
z"/>
</svg>