<svg version="1.1" id="Layer_1" xmlns="http://www.w3.org/2000/svg" xmlns:xlink="http://www.w3.org/1999/xlink" x="0px" y="0px"
	 width="100%" viewBox="0 0 1024 640" enable-background="new 0 0 1024 640" xml:space="preserve">
<path fill="#000000" opacity="1.000000" stroke="none" 
	d="
M94.854187,347.167053 
	C92.448860,347.360931 90.912430,348.998047 89.088692,350.108002 
	C87.648132,350.984741 86.134491,352.237549 84.591698,350.787140 
	C82.956367,349.249817 84.578018,347.727692 85.203857,346.286682 
	C85.661613,345.232574 86.272141,344.244812 87.048325,342.789124 
	C84.510399,343.370056 82.368828,343.925659 80.199203,344.331268 
	C78.982933,344.558624 77.836327,344.232819 77.289322,342.951630 
	C76.746910,341.681305 77.376854,340.724304 78.242577,339.841064 
	C103.132599,314.447845 128.601791,289.599762 158.918564,270.699005 
	C170.284622,263.612946 181.330002,255.794724 193.374023,249.884674 
	C211.731781,240.876480 229.715332,230.915909 249.043915,224.129425 
	C257.355743,221.211044 265.251343,217.150986 273.832367,215.050247 
	C277.991150,214.032135 279.699280,211.645889 280.275848,207.405350 
	C282.850830,188.468231 284.544464,169.350769 289.500397,150.832779 
	C294.576324,131.866592 300.784851,113.237671 308.290100,95.074188 
	C309.728394,91.593376 310.968811,88.366547 308.915802,84.640358 
	C307.886017,82.771332 307.609619,80.580551 308.689301,78.390495 
	C312.864258,69.921814 318.713593,62.760334 326.603851,57.698380 
	C334.322632,52.746433 342.958221,49.526955 351.781830,46.976009 
	C367.250061,42.504074 383.162018,41.368587 399.145386,40.723145 
	C403.957153,40.528843 408.763306,40.065819 413.557037,39.578049 
	C430.828583,37.820641 446.579926,41.879738 460.630829,52.061657 
	C466.806000,56.536457 473.689941,60.075741 478.696655,66.132889 
	C492.257141,82.538483 495.606628,101.185562 490.811890,121.490891 
	C485.556305,143.747864 473.217010,161.141830 453.820435,173.354340 
	C448.151459,176.923660 444.019043,182.276932 438.175781,185.719101 
	C425.221619,193.350220 411.318054,198.763809 397.446228,204.312027 
	C395.686005,205.016052 393.575043,205.176727 392.326904,207.201721 
	C397.370575,209.218765 402.561005,208.665512 407.621704,208.935242 
	C419.853851,209.587189 431.654785,212.260193 443.214966,216.140533 
	C444.779846,216.665817 446.268280,217.491455 447.693909,218.342575 
	C449.964264,219.697952 452.026215,221.569687 450.613922,224.382141 
	C449.296356,227.005951 446.926636,228.743973 443.625916,227.805893 
	C441.511780,227.205048 439.448425,226.425629 436.950836,226.793671 
	C439.323334,228.150482 441.675934,229.543533 444.071503,230.858292 
	C460.707703,239.988586 473.677887,253.332703 486.338318,267.136353 
	C502.617676,284.885681 521.059265,299.955658 542.944153,310.394867 
	C547.598267,312.614899 552.749268,313.488647 557.833252,314.405945 
	C559.207703,314.653931 561.039795,314.624084 561.335327,316.605621 
	C561.577637,318.229675 560.174133,318.861542 559.147278,319.665833 
	C553.239563,324.293213 547.570190,329.190918 542.231140,334.468872 
	C540.805542,335.878113 539.406494,337.259460 537.057556,336.883392 
	C512.149963,332.895172 487.500122,327.805237 464.907166,316.055695 
	C445.254639,305.835358 430.064911,290.584076 418.304718,271.892578 
	C414.835846,266.379150 411.131409,261.077515 406.700104,256.273590 
	C399.422882,248.384476 390.436279,244.309128 379.979309,241.864777 
	C362.072357,237.678925 344.252136,233.954819 325.715118,235.143005 
	C318.609467,235.598465 318.048096,235.980148 317.405182,242.784317 
	C316.138062,256.194153 314.904175,269.610199 313.365631,282.990234 
	C312.363800,291.702454 314.175232,300.275299 314.063843,308.927887 
	C314.055603,309.568634 314.154663,310.385498 314.539276,310.830536 
	C321.077667,318.395752 322.494904,327.837280 324.388916,337.138916 
	C324.846985,339.388519 325.746674,341.604950 326.782043,343.666504 
	C328.231628,346.552917 327.744049,349.100067 326.182404,351.695923 
	C325.057220,353.566254 323.494049,354.726166 321.306641,354.598694 
	C318.780518,354.451447 318.799744,352.408752 318.580566,350.557739 
	C318.510498,349.965942 318.097931,349.414703 317.154816,347.314392 
	C313.629456,358.399200 307.830383,363.450012 297.308594,357.264221 
	C294.271576,358.474854 292.514526,361.149933 290.475800,363.530029 
	C287.551636,366.943787 284.613556,370.309937 281.017273,373.109955 
	C277.842133,375.582123 274.915558,374.466339 272.263184,372.820343 
	C269.479034,371.092529 271.515137,368.718292 272.240082,366.611450 
	C272.706055,365.257263 273.063110,363.865601 273.468994,362.490753 
	C273.029236,362.139282 272.589478,361.787781 272.149750,361.436279 
	C270.118744,363.815552 268.194000,366.296356 266.035706,368.553894 
	C260.750946,374.081604 258.519958,373.729675 254.833023,366.554077 
	C252.601425,367.952576 250.381897,369.323608 248.183456,370.727692 
	C246.518524,371.790985 244.843109,373.455627 242.885971,371.509979 
	C240.988815,369.623901 242.236679,367.891632 243.541931,366.235565 
	C244.571960,364.928680 245.528656,363.560211 246.459061,362.179413 
	C247.915955,360.017273 246.369629,358.338776 245.305038,356.777069 
	C244.175201,355.119629 242.524887,355.256134 240.896133,356.296387 
	C238.701416,357.698090 236.311081,359.136017 234.524414,355.963623 
	C232.837631,352.968597 235.405991,351.425140 237.244370,349.824738 
	C238.108154,349.072784 239.188995,348.169800 240.231110,348.087128 
	C247.724335,347.492767 250.097565,341.928650 253.269455,336.250763 
	C261.926910,320.753296 266.178162,303.840942 270.508423,286.911102 
	C271.033417,284.858459 271.215485,282.519470 270.807831,280.461487 
	C269.106842,271.873535 271.488800,263.625366 272.499786,255.258484 
	C272.830444,252.521774 273.419922,249.175003 268.799805,250.822510 
	C249.660080,257.647644 230.555679,264.702423 212.919342,274.880127 
	C203.849030,280.114502 196.859665,288.301239 188.773911,294.966339 
	C184.021530,298.883728 179.181656,302.707916 174.215836,306.348572 
	C171.224121,308.541901 168.454910,311.108612 163.855392,309.633301 
	C161.312607,308.817688 159.220230,311.794128 157.242340,313.513824 
	C148.946899,320.726471 140.712189,328.008911 132.438080,335.246185 
	C130.679092,336.784698 128.840027,338.265045 126.583176,338.996643 
	C125.192543,339.447449 123.503082,340.169586 122.388321,338.757050 
	C121.118057,337.147491 122.678780,336.049408 123.633835,334.946167 
	C124.388313,334.074615 125.163918,333.221313 125.539757,331.915680 
	C119.158928,336.739075 112.797653,341.588715 106.385696,346.370392 
	C104.385368,347.862122 102.322746,349.301575 100.156624,350.532654 
	C96.672630,352.512695 94.751587,351.616882 94.854187,347.167053 
M392.180420,71.147758 
	C380.216827,70.489098 368.666046,72.873032 357.183990,75.836746 
	C354.127930,76.625572 351.795898,78.038643 350.331024,81.036850 
	C345.952087,89.999481 341.299286,98.217201 341.328369,109.278267 
	C341.364075,122.894264 338.628693,136.725739 334.117218,149.908844 
	C328.980652,164.918686 326.055908,180.441803 323.600159,196.067444 
	C323.418152,197.225525 323.171509,198.390045 324.405396,199.488861 
	C328.425476,199.770752 332.466095,198.591751 336.429352,197.607712 
	C347.989349,194.737579 359.960480,193.455475 370.877533,188.066605 
	C387.670715,179.777161 402.747101,168.713974 418.427887,158.678223 
	C429.330231,151.700729 439.150146,142.938644 446.523895,131.983414 
	C449.192169,128.019165 452.476105,123.723663 451.994598,118.922455 
	C451.286652,111.862709 449.389557,104.884346 447.579010,97.981483 
	C444.460175,86.090614 435.453522,80.081459 424.539948,76.775902 
	C414.334259,73.684761 403.673126,72.606216 392.180420,71.147758 
z"/>
<path fill="#000000" opacity="1.000000" stroke="none" 
	d="
M702.746826,245.755402 
	C682.552795,264.677185 661.625366,282.210938 640.633789,299.676880 
	C631.795227,307.030975 623.468872,314.967682 615.451172,323.216949 
	C614.764343,323.923676 613.991211,324.605133 614.001526,326.077881 
	C617.069946,327.639893 622.261597,325.747253 623.476562,331.186188 
	C623.675903,332.078430 625.594910,331.606232 626.740967,331.421539 
	C652.708069,327.237274 678.788818,324.398407 705.116272,323.623413 
	C714.613770,323.343842 724.200012,322.063812 733.507568,323.914429 
	C755.108887,328.209381 777.167175,327.697174 798.890076,331.028015 
	C819.278381,334.154236 839.396362,338.822205 859.845398,341.333069 
	C872.915039,342.937836 886.120117,341.655029 899.223267,340.346008 
	C919.101685,338.360138 938.871460,335.666504 958.502930,331.876831 
	C964.427002,330.733276 970.069580,328.756195 975.896606,327.379120 
	C977.196777,327.071838 978.677490,326.364044 979.360046,328.046112 
	C980.155212,330.005524 978.510071,330.680603 977.090027,331.197601 
	C971.932861,333.075195 966.515442,334.418640 961.651733,336.868073 
	C957.225220,339.097321 953.206726,342.041046 946.998047,341.296356 
	C951.725769,345.306244 951.534912,345.776215 945.525269,348.735321 
	C951.629944,348.254059 957.490295,346.528870 963.380127,344.928589 
	C966.752502,344.012299 970.148621,343.181519 973.544922,342.356628 
	C974.752380,342.063385 976.053406,342.098450 976.363647,343.579010 
	C976.660034,344.993652 975.504150,345.813690 974.351562,345.989868 
	C970.999634,346.502228 968.153564,348.245087 965.122192,349.611359 
	C971.551147,348.969666 977.629395,346.870178 983.787659,345.109406 
	C985.222717,344.699097 986.655640,344.247498 988.120178,343.987793 
	C988.948486,343.840912 989.792847,344.191650 990.195679,345.048523 
	C990.725952,346.176392 990.151794,347.045166 989.249939,347.567749 
	C988.111023,348.227661 986.888977,348.793213 985.638672,349.204620 
	C964.443848,356.178833 943.030029,362.224182 920.779175,364.863098 
	C903.554993,366.905884 886.299927,367.872589 868.955261,367.166626 
	C851.650513,366.462250 834.319641,366.214722 817.039246,365.139465 
	C793.456543,363.672028 769.843628,362.445862 746.371826,359.522156 
	C729.258240,357.390381 712.130310,358.679840 695.023682,359.516968 
	C678.383728,360.331268 661.854492,362.357147 645.422302,365.119965 
	C623.565002,368.794891 602.040588,373.913330 580.750488,380.051178 
	C571.468689,382.727081 562.129822,385.281799 553.341431,389.342896 
	C546.368164,392.565186 538.910706,390.684082 531.747070,391.880219 
	C528.479492,392.425781 525.774963,390.035583 525.216309,386.838104 
	C524.612061,383.379425 522.702332,381.778046 519.832764,380.398346 
	C513.896851,377.544373 513.365540,374.969452 517.142212,369.478882 
	C527.895325,353.845856 541.373474,340.689178 555.250061,327.950226 
	C577.704102,307.337006 600.212830,286.777313 623.020081,266.557922 
	C631.339722,259.182373 640.586243,252.853745 649.395508,246.028992 
	C662.047791,236.227081 671.354431,223.319778 681.562988,211.256668 
	C685.071167,207.111221 689.308044,203.537323 692.416992,197.874390 
	C684.051880,198.307266 676.368774,197.661652 668.647461,198.609390 
	C648.664001,201.062225 629.053894,205.795288 609.114075,208.391617 
	C594.539062,210.289429 579.880005,211.640320 565.427979,214.331619 
	C554.157654,216.430466 543.016479,219.226593 531.828003,221.757339 
	C530.075806,222.153641 528.359070,222.957565 526.219971,220.843597 
	C531.949951,215.367233 542.312378,217.693100 545.503113,208.672150 
	C543.324036,207.722687 540.828979,208.102310 538.473450,208.554794 
	C531.155273,209.960541 523.713501,210.651932 516.542969,212.972397 
	C513.002136,214.118271 508.955841,213.014969 505.349762,214.761398 
	C504.246674,215.295624 502.949341,214.579788 502.685516,213.214249 
	C502.353119,211.493484 503.721466,210.910889 505.014954,210.493729 
	C511.508057,208.399689 518.012512,206.340668 524.516052,204.279099 
	C529.785461,202.608734 535.606628,202.350006 539.579468,197.508530 
	C540.595764,196.269974 542.840271,195.944397 544.585632,195.413345 
	C566.265442,188.816986 588.191101,182.817184 610.535950,179.414902 
	C628.141418,176.734253 645.709351,173.936050 662.905090,169.578003 
	C681.893066,164.765747 701.121704,162.413467 720.508545,160.579346 
	C725.302490,160.125793 730.039490,159.059723 734.798950,158.253448 
	C741.329285,157.147171 747.805786,157.847427 754.130432,159.372696 
	C757.948792,160.293549 761.327515,162.314804 761.224060,167.157242 
	C761.187256,168.881088 762.202454,169.778076 763.643433,170.577621 
	C770.766357,174.529724 771.627380,178.639053 766.829468,184.932846 
	C759.442322,194.623032 750.620544,202.939240 741.628174,211.065369 
	C728.829163,222.631500 715.884949,234.036972 702.746826,245.755402 
z"/>
<path fill="#000000" opacity="1.000000" stroke="none" 
	d="
M114.041435,455.000122 
	C114.058395,448.668854 114.144768,442.836639 114.068871,437.006531 
	C114.021065,433.335052 115.327972,431.553253 119.331161,431.591003 
	C136.157318,431.749756 153.004227,431.219604 169.806854,431.878021 
	C183.029510,432.396149 194.550705,437.466278 201.620728,449.476074 
	C210.859680,465.170288 207.250504,491.097900 185.205353,499.728149 
	C184.143021,500.144043 183.153183,500.745209 181.268951,501.692993 
	C191.318741,516.769775 201.206482,531.603455 211.162125,546.539001 
	C208.089539,549.337952 204.772202,547.690918 201.829437,548.228271 
	C191.694626,550.079163 185.138474,546.303162 180.293228,536.968445 
	C175.251938,527.255981 168.423050,518.485046 162.673660,509.119568 
	C160.522232,505.614990 158.132919,503.796814 153.874893,504.150238 
	C149.738159,504.493622 145.528122,504.494080 141.391113,504.151611 
	C136.667496,503.760620 134.902618,505.324005 135.058441,510.254730 
	C135.384491,520.574158 135.164398,530.911316 135.146454,541.241150 
	C135.134903,547.895813 134.819489,548.188110 127.994179,548.203735 
	C125.661629,548.209045 123.328995,548.207214 120.996506,548.191956 
	C114.501114,548.149353 114.132858,547.851868 114.121910,541.470886 
	C114.072762,512.813965 114.064934,484.157013 114.041435,455.000122 
M180.935944,479.345337 
	C189.981415,464.751282 182.237930,449.958435 165.161560,449.456909 
	C156.837692,449.212463 148.497070,449.549225 140.172241,449.322144 
	C136.065872,449.210083 135.051361,451.029968 135.124725,454.738220 
	C135.292740,463.232239 135.485947,471.747498 135.060028,480.223541 
	C134.797485,485.448578 137.391006,486.555054 141.606689,486.485596 
	C149.266205,486.359436 156.934448,486.385803 164.581482,486.000092 
	C170.454636,485.703827 176.225479,484.678070 180.935944,479.345337 
z"/>
<path fill="#000000" opacity="1.000000" stroke="none" 
	d="
M710.928040,548.226379 
	C683.291260,548.230652 656.144165,548.140991 628.998901,548.324951 
	C624.318176,548.356628 622.743652,547.071411 622.529846,542.183350 
	C622.232971,535.396240 624.375000,530.406433 628.791565,525.203796 
	C648.724426,501.723541 668.172119,477.831238 687.764893,454.062805 
	C688.573181,453.082275 689.771545,452.226288 689.631775,450.592041 
	C687.888977,448.847351 685.617493,449.439728 683.548340,449.433105 
	C665.728333,449.376190 647.906372,449.242798 630.089294,449.469788 
	C625.230408,449.531647 623.701660,447.872009 623.795288,443.125214 
	C624.055481,429.927338 623.172913,431.789673 634.973816,431.674072 
	C660.948425,431.419556 686.923828,431.229706 712.899231,431.065155 
	C720.353699,431.017914 719.989380,431.183167 720.422485,438.493439 
	C720.813599,445.094879 718.726868,449.880005 714.335571,454.930237 
	C694.567688,477.664459 675.322571,500.853424 655.920349,523.904785 
	C654.682983,525.374878 653.056091,526.699463 652.987793,528.939270 
	C654.629089,530.312256 656.534668,529.722229 658.282349,529.726929 
	C677.101624,529.777954 695.921692,529.848938 714.740051,529.712524 
	C719.093811,529.680969 721.564697,530.764404 720.748291,535.647461 
	C720.614685,536.446655 720.850525,537.303711 720.883057,538.135254 
	C721.277405,548.220825 721.275818,548.220886 710.928040,548.226379 
z"/>
<path fill="#000000" opacity="1.000000" stroke="none" 
	d="
M542.656738,530.330322 
	C538.107178,525.015259 533.795105,519.962769 529.342651,514.745850 
	C524.696411,517.212463 521.707214,520.026062 522.094910,525.644348 
	C522.495239,531.445618 522.096252,537.297974 522.200806,543.125244 
	C522.264282,546.663269 520.869873,548.381042 517.196411,548.261780 
	C513.370178,548.137512 509.534790,548.188599 505.706085,548.278870 
	C502.815582,548.346985 501.533417,547.287720 501.541260,544.178467 
	C501.632843,507.871185 501.658051,471.563599 501.595001,435.256287 
	C501.588531,431.536285 503.250000,430.149841 506.671936,430.134155 
	C525.238403,430.048950 522.023254,428.450012 522.164185,444.260498 
	C522.308105,460.414581 522.185974,476.570923 522.199951,492.726288 
	C522.201355,494.330536 522.338928,495.934692 522.420349,497.691010 
	C525.157104,497.170776 526.337097,495.207520 527.797424,493.748047 
	C535.807068,485.742950 543.837463,477.752594 551.615906,469.525696 
	C554.145447,466.850250 556.787354,465.742737 560.383850,465.861145 
	C566.271484,466.054932 572.170044,465.913574 578.064026,465.913574 
	C578.345276,466.586334 578.626526,467.259064 578.907776,467.931824 
	C567.428406,479.454681 555.948975,490.977570 544.226807,502.744110 
	C556.789734,517.468079 569.101990,531.898254 582.350830,547.426147 
	C573.141602,548.590698 565.606079,548.719971 558.118408,547.621582 
	C556.052063,547.318481 554.975098,544.785461 553.576782,543.148438 
	C550.007751,538.970215 546.454041,534.778931 542.656738,530.330322 
z"/>
<path fill="#000000" opacity="1.000000" stroke="none" 
	d="
M287.139740,464.747864 
	C294.153351,464.482758 300.559631,465.009949 306.775879,467.316528 
	C318.921875,471.823303 326.144501,481.751007 326.273743,494.704681 
	C326.398376,507.192657 326.261505,519.683167 326.376587,532.171265 
	C326.411713,535.984131 326.887756,539.793823 327.185303,543.603149 
	C327.428253,546.713623 326.122101,548.335632 322.894745,548.249084 
	C321.064301,548.199951 319.231628,548.235352 317.399963,548.229004 
	C309.036255,548.200195 309.036255,548.199768 306.428375,540.416199 
	C304.433563,540.568359 303.385620,542.279968 301.994568,543.309143 
	C291.249939,551.258850 279.695923,552.285095 267.514709,547.389221 
	C257.118378,543.210754 251.592972,534.672729 251.809830,523.649231 
	C252.013931,513.273682 257.809479,505.550262 268.297272,501.539825 
	C277.205231,498.133453 286.453247,497.741760 295.817383,498.276428 
	C296.812805,498.333282 297.799255,498.545471 298.794678,498.605011 
	C306.065430,499.040100 308.139709,495.953430 304.852448,489.275085 
	C301.770111,483.013062 295.701874,481.814636 289.670319,481.472565 
	C281.525421,481.010651 273.786346,483.105682 266.776855,487.307556 
	C263.908997,489.026703 262.494446,488.594513 261.005646,485.614563 
	C255.765472,475.126312 256.275757,473.547089 267.336884,469.299988 
	C273.562744,466.909424 279.907410,464.934113 287.139740,464.747864 
M285.614899,534.010376 
	C287.765533,533.867188 289.952148,533.924561 292.060577,533.546204 
	C301.366211,531.876709 306.936584,524.781494 306.002197,516.029480 
	C305.818207,514.305847 305.675507,512.451233 303.474182,512.399536 
	C295.204407,512.205200 286.833557,511.256256 278.824036,514.170654 
	C274.489014,515.747986 272.179169,519.166016 272.363861,523.804932 
	C272.545746,528.372131 274.874969,531.681030 279.351044,533.084290 
	C281.065826,533.621826 282.927338,533.691467 285.614899,534.010376 
z"/>
<path fill="#000000" opacity="1.000000" stroke="none" 
	d="
M828.986572,478.077576 
	C835.945312,487.682159 838.187866,498.204193 837.612488,509.504395 
	C837.430786,513.072754 835.025696,513.225525 832.356079,513.225708 
	C817.205078,513.226868 802.054077,513.256531 786.903076,513.276917 
	C786.070618,513.278015 785.234680,513.333496 784.406189,513.277771 
	C780.175598,512.993591 779.679626,515.097412 780.758057,518.588196 
	C783.031494,525.946960 790.448120,531.778687 798.545166,532.697998 
	C807.991211,533.770447 816.852783,532.208923 824.740234,526.834900 
	C828.171082,524.497375 829.549622,525.661072 831.073486,528.847534 
	C836.256104,539.684692 835.927368,540.685730 824.631653,545.445374 
	C808.119385,552.403137 791.689392,552.781250 776.419739,542.758484 
	C762.245239,533.454590 757.420288,519.073059 758.954224,502.779877 
	C760.759155,483.608429 770.677917,470.417145 789.971130,465.868500 
	C805.017883,462.321014 818.330750,465.688202 828.986572,478.077576 
M805.477295,498.864197 
	C808.300781,498.841644 811.125610,498.755585 813.947449,498.813477 
	C817.097412,498.878052 817.986389,497.581055 817.310669,494.481079 
	C815.554932,486.426819 808.600586,481.252045 799.198242,481.286621 
	C790.054199,481.320251 782.287476,487.118896 780.591492,494.950439 
	C779.900085,498.143219 781.500732,498.736938 784.054993,498.747253 
	C790.864746,498.774811 797.674316,498.824371 805.477295,498.864197 
z"/>
<path fill="#000000" opacity="1.000000" stroke="none" 
	d="
M431.728943,524.000000 
	C431.351746,513.367065 432.500854,503.201050 430.907745,493.087738 
	C430.191650,488.541809 427.752960,485.513885 423.725983,483.580902 
	C411.268616,477.601410 396.236145,486.838165 396.197052,500.534058 
	C396.157623,514.354980 396.037567,528.178589 396.266693,541.995789 
	C396.347137,546.844604 394.531921,548.341125 389.823425,548.319092 
	C375.648438,548.252869 375.641663,548.402771 375.631653,534.392822 
	C375.616669,513.411621 375.690033,492.429779 375.530457,471.449707 
	C375.500977,467.576965 376.813782,465.838470 380.657196,465.980804 
	C382.319733,466.042419 383.987000,465.970306 385.652130,465.967072 
	C394.441406,465.949921 394.441406,465.950836 395.606232,474.392487 
	C397.460815,474.902161 398.113922,473.165894 399.178955,472.348785 
	C410.691254,463.516205 423.287781,462.202515 436.344696,467.825928 
	C446.479889,472.191040 451.582428,481.034424 451.991577,491.606720 
	C452.660858,508.899170 452.167236,526.235291 452.258148,543.552490 
	C452.276245,547.000916 450.777435,548.366882 447.432007,548.262634 
	C443.772095,548.148621 440.102386,548.126892 436.443756,548.256592 
	C433.010315,548.378235 431.667694,546.877197 431.731781,543.482361 
	C431.851166,537.157166 431.742035,530.827698 431.728943,524.000000 
z"/>
<path fill="#000000" opacity="1.000000" stroke="none" 
	d="
M937.866089,504.054932 
	C937.683655,500.247375 937.813293,496.876801 937.256409,493.623718 
	C936.050842,486.581146 931.324097,482.703430 924.127869,482.284576 
	C917.699829,481.910461 911.825073,483.388367 907.070251,487.851013 
	C903.818604,490.902832 902.127747,494.676819 902.187927,499.406494 
	C902.367920,513.554565 902.101685,527.708496 902.300232,541.856018 
	C902.365479,546.509460 900.987244,548.749451 896.048279,548.264832 
	C893.244934,547.989807 890.380981,548.045532 887.565552,548.247620 
	C883.235168,548.558472 881.698975,546.723389 881.724426,542.416504 
	C881.851562,520.941895 881.758240,499.466003 881.765503,477.990570 
	C881.769287,466.855133 881.790833,466.855103 892.623230,466.140350 
	C899.813293,465.665955 899.813293,465.665955 902.076782,474.848938 
	C903.716125,475.112976 904.258850,473.589417 905.230103,472.830994 
	C916.600525,463.952057 929.082458,462.024719 942.262634,467.755798 
	C952.549011,472.228577 957.729858,481.061157 958.102051,491.884827 
	C958.690918,509.012115 958.235107,526.173706 958.367493,543.319641 
	C958.396423,547.064575 956.808960,548.403809 953.266418,548.234131 
	C950.276245,548.091003 947.251831,547.948608 944.283264,548.232483 
	C939.505676,548.689270 937.745972,546.814575 937.826660,542.001038 
	C938.035950,529.518982 937.878113,517.030823 937.866089,504.054932 
z"/>
<path fill="#000000" opacity="1.000000" stroke="none" 
	d="
M866.833008,604.276184 
	C878.692139,603.990051 890.158936,603.823975 901.626221,603.789978 
	C918.588623,603.739685 935.551331,603.757751 952.513733,603.816589 
	C954.858459,603.824768 958.128418,603.096802 958.107300,606.908997 
	C958.088562,610.286560 955.053406,609.933105 952.833496,609.914490 
	C929.725281,609.721252 906.612610,610.474182 883.505981,609.515320 
	C878.705688,609.316162 873.866760,610.032776 869.067810,609.822388 
	C865.677185,609.673767 863.467712,608.123535 866.833008,604.276184 
z"/>
<path fill="#000000" opacity="1.000000" stroke="none" 
	d="
M168.000031,609.888672 
	C151.528824,609.721436 135.557404,609.569946 119.586739,609.361023 
	C117.538338,609.334290 114.660225,609.932007 114.686417,606.698853 
	C114.710976,603.666870 117.431129,603.870728 119.583260,603.868591 
	C147.211990,603.841553 174.840744,603.829041 202.469467,603.846741 
	C204.577911,603.848083 207.342560,603.500000 207.488022,606.540344 
	C207.646408,609.851135 204.756882,609.902527 202.452240,609.913574 
	C191.135147,609.967651 179.817505,609.906860 168.000031,609.888672 
z"/>
<path fill="#000000" opacity="1.000000" stroke="none" 
	d="
M606.222778,607.979858 
	C606.221863,610.463684 606.252380,612.462402 606.207336,614.459473 
	C606.173157,615.976318 606.105347,617.553955 604.228271,618.043335 
	C602.506836,618.492188 601.376587,617.526855 600.422546,616.276550 
	C597.644226,612.635376 595.314758,608.628235 591.049561,604.543091 
	C591.049561,608.356873 591.124939,611.105042 591.022949,613.846619 
	C590.955322,615.665100 590.876404,617.973328 588.390076,617.874512 
	C585.975098,617.778625 585.962036,615.490723 585.935120,613.659180 
	C585.866638,608.997681 585.864929,604.334778 585.885864,599.672668 
	C585.893433,597.985657 585.989929,596.168396 587.922913,595.515686 
	C589.910522,594.844543 590.980103,596.365234 591.959351,597.714233 
	C594.474365,601.178711 596.644897,604.915955 600.087646,608.103455 
	C601.856201,605.101868 601.502502,602.203735 601.298584,599.268921 
	C601.182617,597.599426 601.436096,595.603210 603.607300,595.481995 
	C605.828125,595.358093 606.145630,597.276428 606.189575,599.002563 
	C606.261597,601.831543 606.217102,604.663452 606.222778,607.979858 
z"/>
<path fill="#000000" opacity="1.000000" stroke="none" 
	d="
M243.131714,595.013367 
	C246.554047,595.005493 249.572083,594.840454 252.206314,596.635193 
	C255.589523,598.940247 257.336670,612.510986 254.673691,615.679626 
	C252.641922,618.097229 241.520233,619.556763 239.140854,617.694214 
	C237.967834,616.775940 237.898865,615.422546 237.890869,614.083496 
	C237.862137,609.281433 237.894470,604.478394 237.810974,599.677368 
	C237.751923,596.282654 239.391815,594.819641 243.131714,595.013367 
M251.441315,610.875854 
	C249.827026,608.030945 247.125351,608.284546 244.487411,608.504456 
	C243.165665,608.614563 242.466187,609.520752 242.368774,610.823425 
	C242.278854,612.026245 242.412552,613.436401 243.784866,613.597595 
	C246.557175,613.923462 249.718857,615.201599 251.441315,610.875854 
M242.381989,601.763062 
	C242.691101,606.281494 245.987488,604.527100 248.279785,604.389404 
	C249.626740,604.308472 250.895172,602.984375 250.372086,601.592651 
	C249.430634,599.087952 246.980362,599.458069 244.871216,599.516785 
	C243.842636,599.545410 242.990234,600.055969 242.381989,601.763062 
z"/>
<path fill="#000000" opacity="1.000000" stroke="none" 
	d="
M393.566193,616.130005 
	C391.190643,619.655701 389.555389,617.716064 387.966766,615.850159 
	C384.994202,612.358643 382.816833,608.190613 378.190277,604.330688 
	C378.190277,608.389099 378.230621,611.446716 378.173004,614.502625 
	C378.144867,615.995300 378.101776,617.764465 376.080139,617.857544 
	C374.053040,617.950928 373.775696,616.253052 373.748932,614.718872 
	C373.656342,609.408813 373.619019,604.097473 373.613312,598.786621 
	C373.611847,597.436157 373.803253,596.032837 375.424622,595.616638 
	C376.927612,595.230774 377.992401,596.126282 378.834320,597.187744 
	C381.811981,600.941711 384.735901,604.738281 388.862885,608.338257 
	C388.862885,605.497986 388.822388,602.656860 388.877563,599.817688 
	C388.912506,598.018738 388.696503,595.713501 391.294250,595.723816 
	C393.778046,595.733643 393.863831,598.061890 393.880676,599.822449 
	C393.931549,605.125671 393.781647,610.430847 393.566193,616.130005 
z"/>
<path fill="#000000" opacity="1.000000" stroke="none" 
	d="
M521.787842,612.152344 
	C521.596008,613.803833 521.547058,615.136047 521.237610,616.404663 
	C520.984985,617.440369 520.157959,618.074524 519.016846,617.994995 
	C517.851929,617.913818 517.101807,617.080872 517.085876,616.065491 
	C516.990295,609.945679 516.989868,603.823914 517.040710,597.703430 
	C517.045471,597.137085 517.491333,596.304138 517.971130,596.055176 
	C521.581299,594.181702 525.375610,594.832397 529.096802,595.590454 
	C532.170715,596.216736 533.843811,598.429626 534.651489,601.348389 
	C535.133789,603.091431 534.716370,604.867004 533.553833,606.003784 
	C530.813782,608.683167 531.293030,611.125671 533.364136,613.847290 
	C534.223755,614.976868 535.494812,616.593262 533.800171,617.734192 
	C532.001221,618.945374 530.766296,617.275452 529.777039,615.934937 
	C528.795593,614.604858 528.111389,613.020264 526.991516,611.836121 
	C525.411987,610.166016 523.551697,608.935547 521.787842,612.152344 
M528.067261,604.721863 
	C529.572754,603.819153 530.340454,602.375366 528.949524,601.155334 
	C526.943787,599.395935 524.479980,599.714111 522.036499,600.780029 
	C521.375732,605.438843 523.472778,606.373657 528.067261,604.721863 
z"/>
<path fill="#000000" opacity="1.000000" stroke="none" 
	d="
M695.674927,604.652588 
	C695.630188,595.295288 701.813599,591.879333 709.838074,596.387634 
	C713.400146,598.388916 715.325684,602.931519 712.915161,605.540283 
	C709.550537,609.181458 710.569519,611.908997 713.173767,615.016418 
	C713.557556,615.474365 713.628662,616.194275 713.922729,617.010437 
	C711.507385,619.095703 709.966675,617.751038 708.581238,615.940125 
	C707.472656,614.491272 706.517578,612.924255 705.396240,611.486267 
	C704.487610,610.321045 703.174438,610.018311 701.798645,610.453125 
	C700.428101,610.886353 700.380005,612.134338 700.312439,613.315613 
	C700.274536,613.979187 700.257263,614.646545 700.170532,615.304260 
	C699.987793,616.688904 699.631714,618.074890 697.864807,617.950378 
	C696.161011,617.830322 695.836487,616.428650 695.800659,615.044434 
	C695.714905,611.730652 695.703796,608.414978 695.674927,604.652588 
M702.835144,600.110413 
	C700.329651,600.455078 699.830688,602.163574 700.627502,604.091187 
	C701.588623,606.416138 703.686462,605.452026 705.408813,605.131958 
	C706.921387,604.850891 708.618225,604.291748 708.349060,602.410950 
	C707.953857,599.649231 705.537109,600.166992 702.835144,600.110413 
z"/>
<path fill="#000000" opacity="1.000000" stroke="none" 
	d="
M456.177948,599.872620 
	C454.624542,599.787781 453.460144,599.618042 452.302155,599.654175 
	C450.509857,599.709961 449.486389,600.752808 449.584686,602.527710 
	C449.679504,604.240173 451.047394,604.557373 452.469849,604.605408 
	C453.800415,604.650452 455.134033,604.631592 456.462555,604.706909 
	C457.908295,604.788818 459.824738,604.507568 459.755615,606.700623 
	C459.694336,608.644165 457.862000,608.637695 456.405396,608.971191 
	C453.956116,609.532166 449.506256,607.709717 449.938171,612.051331 
	C450.282013,615.507568 454.369476,613.426208 456.756256,613.908142 
	C458.645386,614.289612 461.427185,613.805908 461.348572,616.496521 
	C461.274994,619.014282 458.601776,618.332214 456.911865,618.326233 
	C443.075745,618.277161 444.883606,619.655090 444.833588,606.438721 
	C444.788055,594.412842 443.034119,594.966736 456.456604,595.001038 
	C458.382629,595.005920 461.158997,594.550537 461.369232,597.125549 
	C461.631561,600.338623 458.550934,599.553406 456.177948,599.872620 
z"/>
<path fill="#000000" opacity="1.000000" stroke="none" 
	d="
M790.883911,594.966064 
	C793.631714,595.342712 797.456482,593.971069 797.600464,597.191467 
	C797.775024,601.097534 793.773926,599.583740 791.403198,599.882629 
	C789.426147,600.131897 786.915710,599.852539 786.984436,602.662109 
	C787.052307,605.442139 789.625122,604.457825 791.271545,604.686096 
	C792.254150,604.822327 793.265442,604.736877 794.259338,604.810791 
	C795.348389,604.891602 796.227112,605.392517 796.368958,606.544373 
	C796.552673,608.036987 795.479065,608.646790 794.264404,608.820312 
	C792.790649,609.030884 791.284668,609.019104 789.792236,609.094788 
	C788.168640,609.177124 786.703064,609.600037 786.639587,611.533325 
	C786.571960,613.596008 788.142029,613.841675 789.728333,613.905151 
	C791.554932,613.978333 793.393127,613.933777 795.205811,614.129822 
	C796.553345,614.275635 797.963867,614.771667 797.935181,616.465088 
	C797.905579,618.209839 796.481079,618.573364 795.092651,618.562561 
	C791.766663,618.536621 788.441101,618.408630 785.116211,618.296509 
	C782.496277,618.208130 781.811279,616.512329 781.806030,614.253784 
	C781.794556,609.262390 781.613403,604.265503 781.787109,599.280884 
	C782.013245,592.790588 787.143921,595.615845 790.883911,594.966064 
z"/>
<path fill="#000000" opacity="1.000000" stroke="none" 
	d="
M637.964111,613.044495 
	C639.038757,614.477051 640.563965,615.254700 640.250977,617.851685 
	C633.739258,619.218689 633.244934,610.740112 628.219910,610.066223 
	C626.446350,611.672363 627.437073,613.868958 626.944946,615.718628 
	C626.573853,617.113220 626.020264,618.321838 624.295837,618.031616 
	C622.590942,617.744751 622.441040,616.324402 622.415100,614.960571 
	C622.317200,609.812195 622.182373,604.662720 622.218079,599.514709 
	C622.230347,597.744995 622.256409,595.431030 624.849243,595.531128 
	C627.018066,595.614990 627.021851,597.650452 627.214478,599.322083 
	C627.340698,600.417542 626.831970,601.659607 628.257751,602.921265 
	C630.353516,600.940796 632.436096,598.886230 634.618530,596.943848 
	C635.862854,595.836426 637.478394,594.508789 639.000427,595.965576 
	C640.829468,597.716125 638.755493,598.882385 637.712341,600.010437 
	C632.139954,606.036316 632.126099,606.023499 637.964111,613.044495 
z"/>
<path fill="#000000" opacity="1.000000" stroke="none" 
	d="
M750.221558,604.763794 
	C748.684448,600.764771 749.621887,597.815735 753.163513,596.094666 
	C757.015747,594.222656 760.899414,594.387085 764.485107,596.924316 
	C765.485229,597.632019 766.147522,598.685242 765.349792,599.920959 
	C764.596924,601.087158 763.468323,601.066956 762.262939,600.585388 
	C759.468628,599.468750 756.663147,598.416138 754.378784,601.627563 
	C755.523804,604.151611 757.790100,604.294312 759.825317,604.811096 
	C763.921265,605.851318 767.001343,607.899902 766.457703,612.664062 
	C765.938782,617.211975 762.269287,618.243164 758.530212,618.826477 
	C757.427856,618.998413 756.202271,618.793030 755.104553,618.496277 
	C752.813293,617.877014 749.070862,617.855530 749.741699,614.668152 
	C750.519836,610.970398 753.529297,613.884460 755.487854,614.187866 
	C757.953125,614.569763 760.649414,614.825562 761.314636,612.087830 
	C761.957153,609.443665 758.981079,609.318115 757.216797,608.779785 
	C754.667053,608.001709 752.003296,607.575806 750.221558,604.763794 
z"/>
<path fill="#000000" opacity="1.000000" stroke="none" 
	d="
M554.530457,603.618286 
	C556.512573,600.691895 556.167603,595.679443 560.032898,595.710571 
	C563.809326,595.740906 563.933472,600.495483 565.375671,603.318848 
	C567.257996,607.003906 568.860046,610.833374 570.543457,614.618103 
	C571.025696,615.702515 571.420715,616.982056 570.168213,617.744812 
	C568.756409,618.604492 567.754211,617.705627 566.795288,616.613098 
	C562.260315,611.446228 557.914368,611.397095 553.584961,616.438843 
	C552.677734,617.495361 551.756165,618.568909 550.258972,617.852356 
	C548.595947,617.056458 549.172302,615.632202 549.702698,614.411133 
	C551.222656,610.911987 552.808838,607.441650 554.530457,603.618286 
M562.178101,606.920227 
	C561.659180,605.778198 561.562012,604.324768 559.932739,603.910645 
	C558.535400,604.925293 557.842773,606.257996 557.973083,608.101257 
	C559.547302,608.732361 561.042908,609.385132 562.178101,606.920227 
z"/>
<path fill="#000000" opacity="1.000000" stroke="none" 
	d="
M339.706970,617.655029 
	C336.381409,618.336426 336.348938,616.670532 337.217560,614.624207 
	C339.617371,608.970764 341.943573,603.276489 344.616119,597.751831 
	C346.306213,594.258118 348.522736,594.276367 350.248596,597.720520 
	C352.924622,603.060852 355.344727,608.531433 357.783112,613.987183 
	C358.378357,615.318970 359.011932,616.955383 357.185150,617.910522 
	C355.921295,618.571350 355.079559,617.640930 354.250916,616.729919 
	C349.188019,611.163879 344.366241,611.421326 339.706970,617.655029 
M349.328522,606.124023 
	C348.681854,605.177063 349.126770,603.393066 346.688477,603.327271 
	C346.749451,605.025024 344.058289,606.477478 346.382507,608.286316 
	C347.440826,609.109924 349.329956,609.039917 349.328522,606.124023 
z"/>
<path fill="#000000" opacity="1.000000" stroke="none" 
	d="
M284.073669,598.120056 
	C286.467010,603.470886 288.746979,608.468689 290.894226,613.522827 
	C291.482880,614.908325 293.011536,616.675903 290.798187,617.853638 
	C289.039673,618.789490 288.221405,617.127380 287.298218,615.928833 
	C284.126221,611.810547 277.932892,611.762329 274.754333,615.826904 
	C273.832947,617.005127 273.087250,618.679932 271.270020,617.767822 
	C269.381470,616.819885 270.307617,615.213928 270.911072,613.863586 
	C273.287811,608.544983 275.594879,603.191345 278.133789,597.950562 
	C279.794434,594.522644 281.888428,594.452271 284.073669,598.120056 
M279.763214,604.605042 
	C279.402832,605.778198 278.040802,607.060059 279.202515,608.132751 
	C280.289154,609.136230 281.869690,609.012329 283.385925,607.616699 
	C282.285156,606.392456 283.640869,603.223206 279.763214,604.605042 
z"/>
<path fill="#000000" opacity="1.000000" stroke="none" 
	d="
M410.444885,601.715210 
	C414.871552,595.203857 421.301819,593.199097 426.885925,596.340088 
	C428.328094,597.151306 430.162781,598.042480 429.092529,600.108887 
	C428.183441,601.864014 426.597900,601.008789 425.136200,600.530029 
	C418.517731,598.362427 414.301941,600.803955 414.185760,606.784485 
	C414.074066,612.533203 418.677307,615.695862 424.347748,613.824341 
	C425.944000,613.297546 428.112854,611.483337 429.088562,613.918152 
	C430.074738,616.379089 427.424286,617.295837 425.650208,617.911560 
	C421.135773,619.478149 416.631622,619.292969 413.096741,615.740112 
	C409.288940,611.912903 407.848175,607.313477 410.444885,601.715210 
z"/>
<path fill="#000000" opacity="1.000000" stroke="none" 
	d="
M317.199799,618.471436 
	C306.922699,618.132935 306.921661,618.132935 306.906860,608.200317 
	C306.902161,605.052917 306.844940,601.903992 306.929443,598.758850 
	C306.970947,597.216614 307.357056,595.558289 309.377838,595.739258 
	C311.050293,595.889038 311.225555,597.419373 311.250183,598.780396 
	C311.313232,602.258728 311.467163,605.743835 311.320831,609.215088 
	C311.181244,612.526245 312.298370,614.304993 315.846802,613.964600 
	C316.502136,613.901794 317.175140,613.935608 317.832703,613.999695 
	C319.729736,614.184631 322.600098,613.624756 322.613068,616.248352 
	C322.628693,619.423523 319.620331,618.400146 317.199799,618.471436 
z"/>
<path fill="#000000" opacity="1.000000" stroke="none" 
	d="
M730.594116,595.687134 
	C733.204590,595.022705 734.067200,596.486145 734.106873,598.279297 
	C734.231995,603.930298 734.182922,609.586243 734.127686,615.239502 
	C734.113892,616.651123 733.584290,617.936401 731.886414,618.014954 
	C730.224060,618.091980 729.288147,616.865540 729.341492,615.513428 
	C729.599915,608.969910 728.318787,602.347046 730.594116,595.687134 
z"/>
<path fill="#000000" opacity="1.000000" stroke="none" 
	d="
M478.139465,618.070557 
	C475.643829,616.480286 475.532288,614.841919 477.679108,613.373352 
	C478.947906,612.505432 480.388733,612.994629 480.973602,614.309998 
	C481.993103,616.602722 481.204071,618.082825 478.139465,618.070557 
z"/>
<path fill="#000000" opacity="1.000000" stroke="none" 
	d="
M658.377930,613.441895 
	C660.376465,614.706177 660.972534,616.093262 659.143982,617.523010 
	C657.923401,618.477295 656.410950,618.219543 655.725769,616.853760 
	C654.596619,614.602783 655.650146,613.424133 658.377930,613.441895 
z"/>
<path fill="#000000" opacity="1.000000" stroke="none" 
	d="
M813.136475,615.283813 
	C814.339844,612.857544 815.824768,612.340271 817.449341,614.245300 
	C818.421692,615.385437 818.328430,616.919739 816.959106,617.666138 
	C814.925781,618.774414 813.483887,618.045532 813.136475,615.283813 
z"/>
</svg>